<svg width="54" height="45" viewBox="0 0 54 45" fill="none" xmlns="http://www.w3.org/2000/svg">
<circle cx="34" cy="20" r="19.5" fill="white" stroke="#767272"/>
<path d="M43.8846 14.1786C43.7701 14.0145 43.5859 13.9131 43.3858 13.9045L30.9796 13.3698C30.6236 13.3542 30.3262 13.629 30.3109 13.9833C30.2958 14.3375 30.5702 14.6367 30.9244 14.6519L42.4907 15.1505L40.2165 22.2461H30.0962L28.2678 12.2907C28.2276 12.0725 28.0778 11.8904 27.8712 11.8094L24.8766 10.6329C24.5466 10.5037 24.1742 10.6658 24.0445 10.9955C23.9151 11.3253 24.0772 11.6979 24.4071 11.8276L27.0697 12.8736L28.9304 23.0038C28.9865 23.3083 29.2519 23.5295 29.5617 23.5295H29.8703L29.1655 25.4872C29.1065 25.6512 29.1308 25.8333 29.2312 25.9757C29.3315 26.1183 29.4945 26.203 29.6686 26.203H30.1629C29.8566 26.5439 29.6686 26.9928 29.6686 27.4864C29.6686 28.548 30.5324 29.4116 31.5937 29.4116C32.655 29.4116 33.5188 28.548 33.5188 27.4864C33.5188 26.9929 33.3308 26.5439 33.0245 26.203H37.2217C36.9153 26.5439 36.7273 26.9928 36.7273 27.4864C36.7273 28.548 37.5908 29.4116 38.6524 29.4116C39.714 29.4116 40.5775 28.548 40.5775 27.4864C40.5775 26.9929 40.3895 26.5439 40.0833 26.203H40.6845C40.9799 26.203 41.2192 25.9636 41.2192 25.6683C41.2192 25.3729 40.9798 25.1335 40.6845 25.1335H30.4295L31.0069 23.5293H40.6844C40.9635 23.5293 41.2104 23.349 41.2954 23.0835L43.9692 14.7413C44.0306 14.5509 43.9991 14.3428 43.8846 14.1786ZM31.5937 28.3423C31.1219 28.3423 30.7381 27.9585 30.7381 27.4867C30.7381 27.0148 31.1219 26.631 31.5937 26.631C32.0656 26.631 32.4493 27.0148 32.4493 27.4867C32.4493 27.9585 32.0656 28.3423 31.5937 28.3423ZM38.6524 28.3423C38.1805 28.3423 37.7968 27.9585 37.7968 27.4867C37.7968 27.0148 38.1805 26.631 38.6524 26.631C39.1243 26.631 39.508 27.0148 39.508 27.4867C39.508 27.9585 39.1243 28.3423 38.6524 28.3423Z" fill="#767272"/>
<circle cx="12.5" cy="32.5" r="12.5" fill="#0E49B5"/>
<path d="M11.6865 31.1484H12.7393C13.2406 31.1484 13.612 31.0231 13.8535 30.7725C14.0951 30.5218 14.2158 30.1891 14.2158 29.7744C14.2158 29.3734 14.0951 29.0612 13.8535 28.8379C13.6165 28.6146 13.2884 28.5029 12.8691 28.5029C12.4909 28.5029 12.1742 28.6077 11.9189 28.8174C11.6637 29.0225 11.5361 29.2913 11.5361 29.624H9.56055C9.56055 29.1045 9.69954 28.6396 9.97754 28.2295C10.2601 27.8148 10.652 27.4912 11.1533 27.2588C11.6592 27.0264 12.2152 26.9102 12.8213 26.9102C13.874 26.9102 14.6989 27.1631 15.2959 27.6689C15.8929 28.1702 16.1914 28.863 16.1914 29.7471C16.1914 30.2028 16.0524 30.6221 15.7744 31.0049C15.4964 31.3877 15.1318 31.6816 14.6807 31.8867C15.2412 32.0872 15.6582 32.388 15.9316 32.7891C16.2096 33.1901 16.3486 33.6641 16.3486 34.2109C16.3486 35.0951 16.0251 35.8037 15.3779 36.3369C14.7354 36.8701 13.8831 37.1367 12.8213 37.1367C11.8278 37.1367 11.0143 36.8747 10.3809 36.3506C9.75195 35.8265 9.4375 35.1338 9.4375 34.2725H11.4131C11.4131 34.6462 11.5521 34.9515 11.8301 35.1885C12.1126 35.4255 12.459 35.5439 12.8691 35.5439C13.3385 35.5439 13.7054 35.4209 13.9697 35.1748C14.2386 34.9242 14.373 34.5938 14.373 34.1836C14.373 33.1901 13.8262 32.6934 12.7324 32.6934H11.6865V31.1484Z" fill="white"/>
</svg>
