<svg width="20" height="20" viewBox="0 0 20 20" fill="none" xmlns="http://www.w3.org/2000/svg">
<g clip-path="url(#clip0_4606_4264)">
<g filter="url(#filter0_d_4606_4264)">
<path d="M10.0001 17.7917L8.79175 16.6917C4.50008 12.8 1.66675 10.2333 1.66675 7.08333C1.66675 4.51667 3.68341 2.5 6.25008 2.5C7.70008 2.5 9.09175 3.175 10.0001 4.24167C10.9084 3.175 12.3001 2.5 13.7501 2.5C16.3167 2.5 18.3334 4.51667 18.3334 7.08333C18.3334 10.2333 15.5001 12.8 11.2084 16.7L10.0001 17.7917Z" fill="#F05454"/>
<path d="M9.12834 16.3219L9.12762 16.3213C6.97172 14.3663 5.22284 12.7794 4.0069 11.2928C2.7967 9.81324 2.16675 8.49409 2.16675 7.08333C2.16675 4.79281 3.95956 3 6.25008 3C7.54869 3 8.80287 3.60697 9.61941 4.56584L10.0001 5.01287L10.3808 4.56584C11.1973 3.60697 12.4515 3 13.7501 3C16.0406 3 17.8334 4.79281 17.8334 7.08333C17.8334 8.4941 17.2035 9.81327 15.9932 11.294C14.7782 12.7804 13.0314 14.3678 10.8782 16.3245L10.8732 16.329L10.8722 16.33L10.0014 17.1167L9.12834 16.3219Z" stroke="black"/>
<path d="M9.12834 16.3219L9.12762 16.3213C6.97172 14.3663 5.22284 12.7794 4.0069 11.2928C2.7967 9.81324 2.16675 8.49409 2.16675 7.08333C2.16675 4.79281 3.95956 3 6.25008 3C7.54869 3 8.80287 3.60697 9.61941 4.56584L10.0001 5.01287L10.3808 4.56584C11.1973 3.60697 12.4515 3 13.7501 3C16.0406 3 17.8334 4.79281 17.8334 7.08333C17.8334 8.4941 17.2035 9.81327 15.9932 11.294C14.7782 12.7804 13.0314 14.3678 10.8782 16.3245L10.8732 16.329L10.8722 16.33L10.0014 17.1167L9.12834 16.3219Z" stroke="black" stroke-opacity="0.2"/>
<path d="M9.12834 16.3219L9.12762 16.3213C6.97172 14.3663 5.22284 12.7794 4.0069 11.2928C2.7967 9.81324 2.16675 8.49409 2.16675 7.08333C2.16675 4.79281 3.95956 3 6.25008 3C7.54869 3 8.80287 3.60697 9.61941 4.56584L10.0001 5.01287L10.3808 4.56584C11.1973 3.60697 12.4515 3 13.7501 3C16.0406 3 17.8334 4.79281 17.8334 7.08333C17.8334 8.4941 17.2035 9.81327 15.9932 11.294C14.7782 12.7804 13.0314 14.3678 10.8782 16.3245L10.8732 16.329L10.8722 16.33L10.0014 17.1167L9.12834 16.3219Z" stroke="black" stroke-opacity="0.2"/>
</g>
</g>
<defs>
<filter id="filter0_d_4606_4264" x="-2.33325" y="2.5" width="24.6667" height="23.2916" filterUnits="userSpaceOnUse" color-interpolation-filters="sRGB">
<feFlood flood-opacity="0" result="BackgroundImageFix"/>
<feColorMatrix in="SourceAlpha" type="matrix" values="0 0 0 0 0 0 0 0 0 0 0 0 0 0 0 0 0 0 127 0" result="hardAlpha"/>
<feOffset dy="4"/>
<feGaussianBlur stdDeviation="2"/>
<feComposite in2="hardAlpha" operator="out"/>
<feColorMatrix type="matrix" values="0 0 0 0 0 0 0 0 0 0 0 0 0 0 0 0 0 0 0.25 0"/>
<feBlend mode="normal" in2="BackgroundImageFix" result="effect1_dropShadow_4606_4264"/>
<feBlend mode="normal" in="SourceGraphic" in2="effect1_dropShadow_4606_4264" result="shape"/>
</filter>
<clipPath id="clip0_4606_4264">
<rect width="20" height="20" fill="white"/>
</clipPath>
</defs>
</svg>
