<svg width="20" height="18" viewBox="0 0 20 18" fill="none" xmlns="http://www.w3.org/2000/svg">
<g filter="url(#filter0_d_4606_4266)">
<path d="M10.0001 15.7917L8.79175 14.6917C4.50008 10.8 1.66675 8.23333 1.66675 5.08333C1.66675 2.51667 3.68341 0.5 6.25008 0.5C7.70008 0.5 9.09175 1.175 10.0001 2.24167C10.9084 1.175 12.3001 0.5 13.7501 0.5C16.3167 0.5 18.3334 2.51667 18.3334 5.08333C18.3334 8.23333 15.5001 10.8 11.2084 14.7L10.0001 15.7917Z" fill="#F05454"/>
<path d="M9.12834 14.3219L9.12762 14.3213C6.97172 12.3663 5.22284 10.7794 4.0069 9.29281C2.7967 7.81324 2.16675 6.49409 2.16675 5.08333C2.16675 2.79281 3.95956 1 6.25008 1C7.54869 1 8.80287 1.60697 9.61941 2.56584L10.0001 3.01287L10.3808 2.56584C11.1973 1.60697 12.4515 1 13.7501 1C16.0406 1 17.8334 2.79281 17.8334 5.08333C17.8334 6.4941 17.2035 7.81327 15.9932 9.29399C14.7782 10.7804 13.0314 12.3678 10.8782 14.3245L10.8732 14.329L10.8722 14.33L10.0014 15.1167L9.12834 14.3219Z" stroke="black"/>
<path d="M9.12834 14.3219L9.12762 14.3213C6.97172 12.3663 5.22284 10.7794 4.0069 9.29281C2.7967 7.81324 2.16675 6.49409 2.16675 5.08333C2.16675 2.79281 3.95956 1 6.25008 1C7.54869 1 8.80287 1.60697 9.61941 2.56584L10.0001 3.01287L10.3808 2.56584C11.1973 1.60697 12.4515 1 13.7501 1C16.0406 1 17.8334 2.79281 17.8334 5.08333C17.8334 6.4941 17.2035 7.81327 15.9932 9.29399C14.7782 10.7804 13.0314 12.3678 10.8782 14.3245L10.8732 14.329L10.8722 14.33L10.0014 15.1167L9.12834 14.3219Z" stroke="black" stroke-opacity="0.2"/>
<path d="M9.12834 14.3219L9.12762 14.3213C6.97172 12.3663 5.22284 10.7794 4.0069 9.29281C2.7967 7.81324 2.16675 6.49409 2.16675 5.08333C2.16675 2.79281 3.95956 1 6.25008 1C7.54869 1 8.80287 1.60697 9.61941 2.56584L10.0001 3.01287L10.3808 2.56584C11.1973 1.60697 12.4515 1 13.7501 1C16.0406 1 17.8334 2.79281 17.8334 5.08333C17.8334 6.4941 17.2035 7.81327 15.9932 9.29399C14.7782 10.7804 13.0314 12.3678 10.8782 14.3245L10.8732 14.329L10.8722 14.33L10.0014 15.1167L9.12834 14.3219Z" stroke="black" stroke-opacity="0.2"/>
</g>
<defs>
<filter id="filter0_d_4606_4266" x="-2.33325" y="0.5" width="24.6667" height="23.2916" filterUnits="userSpaceOnUse" color-interpolation-filters="sRGB">
<feFlood flood-opacity="0" result="BackgroundImageFix"/>
<feColorMatrix in="SourceAlpha" type="matrix" values="0 0 0 0 0 0 0 0 0 0 0 0 0 0 0 0 0 0 127 0" result="hardAlpha"/>
<feOffset dy="4"/>
<feGaussianBlur stdDeviation="2"/>
<feComposite in2="hardAlpha" operator="out"/>
<feColorMatrix type="matrix" values="0 0 0 0 0 0 0 0 0 0 0 0 0 0 0 0 0 0 0.25 0"/>
<feBlend mode="normal" in2="BackgroundImageFix" result="effect1_dropShadow_4606_4266"/>
<feBlend mode="normal" in="SourceGraphic" in2="effect1_dropShadow_4606_4266" result="shape"/>
</filter>
</defs>
</svg>
